<svg width="192" height="152" enable-background="new" version="1.0" viewBox="0 0 192 152" xmlns="http://www.w3.org/2000/svg" xmlns:xlink="http://www.w3.org/1999/xlink">
    <title>Adwaita Icon Template</title>
    <defs>
        <linearGradient id="c" gradientUnits="userSpaceOnUse">
            <stop stop-color="#f0f0f0" offset=".40072"/>
            <stop stop-color="#888" offset="1"/>
        </linearGradient>
        <radialGradient id="d-3-5" cx="17.628" cy="17.934" r="1.6499" gradientTransform="matrix(.9952 0 0 .9952 .02466 172.05)" xlink:href="#c"/>
        <radialGradient id="e-5-9" cx="17.628" cy="30.966" r="1.6499" gradientTransform="matrix(.9952 0 0 .9952 .02466 172.05)" xlink:href="#c"/>
        <radialGradient id="f-6-0" cx="35.547" cy="30.966" r="1.6499" gradientTransform="matrix(.9952 0 0 .9952 .02466 172.05)" xlink:href="#c"/>
        <linearGradient id="linearGradient105" x1="88.596" x2="536.6" y1="-449.39" y2="-449.39" gradientTransform="matrix(.23214 0 0 .32895 -8.5669 435.83)" gradientUnits="userSpaceOnUse">
            <stop stop-color="#3d3846" offset="0"/>
            <stop stop-color="#616161" offset=".050256"/>
            <stop stop-color="#3d3846" offset=".10243"/>
            <stop stop-color="#3d3846" offset=".89565"/>
            <stop stop-color="#616161" offset=".94697"/>
            <stop stop-color="#3d3846" offset="1"/>
        </linearGradient>
        <linearGradient id="linearGradient106" x1="-145.67" x2="-145.67" y1="208.9" y2="282.08" gradientTransform="translate(210)" gradientUnits="userSpaceOnUse">
            <stop stop-color="#484848" offset="0"/>
            <stop stop-color="#3d3846" offset="1"/>
        </linearGradient>
        <linearGradient id="linearGradient107" x1="12" x2="116.21" y1="207.66" y2="207.66" gradientTransform="matrix(.9952 0 0 .9952 .28981 1.2749)" gradientUnits="userSpaceOnUse">
            <stop stop-color="#616161" offset="0"/>
            <stop stop-color="#484848" offset="1"/>
        </linearGradient>
    </defs>
    <g transform="translate(8,-156)">
        <g>
            <rect id="hicolor" x="9.2651e-8" y="172" width="128" height="128" enable-background="accumulate" fill-opacity="0"/>
            <rect id="symbolic" x="160" y="172" width="16" height="16" enable-background="accumulate" fill-opacity="0"/>
            <g>
                <rect x="9.2651e-8" y="172" width="128" height="128" enable-background="accumulate" fill="#f0f0f0"/>
                <rect x="160" y="172" width="16" height="16" enable-background="accumulate" fill="#f0f0f0"/>
                <text y="167" enable-background="new" fill="#000000" font-family="Cantarell" font-size="4px" font-weight="bold" stroke-width=".33265" style="line-height:125%" xml:space="preserve"><tspan x="0" y="167" font-size="4px" stroke-width=".33265">Hicolor</tspan></text>
                <text x="160" y="167" enable-background="new" fill="#000000" font-family="Cantarell" font-size="4px" font-weight="bold" stroke-width=".33265" style="line-height:125%" xml:space="preserve"><tspan x="160" y="167" font-size="4px" stroke-width=".33265">Symbolic</tspan></text>
                <rect x="12" y="188" width="104" height="100" rx="8" ry="8" enable-background="new" fill="url(#linearGradient105)" style="paint-order:normal"/>
            </g>
            <path d="m20 184 10.5-0.0469 0.75 1.5156 76.75-0.0312c5.1214-2e-3 8 2.818 8 6.5625v84c0 4.432-3.568 8-8 8h-88c-4.432 0-8-3.568-8-8v-84c0-4.432 3.5686-8.0724 8-8z" enable-background="new" fill="url(#linearGradient106)" stroke-width=".25"/>
            <path d="m31.323 185.46h78.124s6.5374 0 6.5374 6.5374v4.2642h-78.477z" enable-background="new" fill="#191919" stroke-width="1.0034"/>
            <path d="m37.386 196.08 78.598 0.17636 0.0354 11.135-72.225 0.0314z" enable-background="new" fill="#191919" stroke-width="1.0034"/>
            <g transform="matrix(1.0033 0 0 1.0033 -.23147 171.77)" enable-background="new" fill="#c0c0c0">
                <path d="m41.957 35.535 6.2148-10.766h9.7344l-6.2148 10.766z"/>
                <path d="m41.957 13.648 6.2148 10.766h9.7344l-6.2148-10.766z"/>
                <path d="m61.238 13.648 6.2148 10.766h9.7344l-6.2148-10.766z"/>
                <path d="m80.523 13.648 6.2148 10.766h9.7344l-6.2148-10.766z"/>
                <path d="m99.809 13.648 6.2148 10.766h9.7344l-6.2148-10.766z"/>
                <path d="m61.238 35.535 6.2148-10.766h9.7344l-6.2148 10.766z"/>
                <path d="m80.523 35.535 6.2148-10.766h9.7344l-6.2148 10.766z"/>
                <path d="m99.809 35.535 6.2148-10.766h9.7344l-6.2148 10.766z"/>
            </g>
            <g stroke-width=".9952">
                <path d="m20.037 184.02s-8.0705-0.0283-8.0705 8.3442v15.059l31.936 0.035-13.447-23.438z" enable-background="new" fill="#333331"/>
                <path d="m19.209 191.23c0 0.90579-0.73474 1.6405-1.6405 1.6405-0.90968 0-1.6444-0.73473-1.6444-1.6405 0-0.90968 0.73474-1.6444 1.6444-1.6444 0.90579 0 1.6405 0.73474 1.6405 1.6444z" enable-background="new" fill="#191919"/>
                <path d="m19.209 189.9c0 0.9058-0.73474 1.6405-1.6405 1.6405-0.90968 0-1.6444-0.73474-1.6444-1.6405 0-0.90575 0.73474-1.6405 1.6444-1.6405 0.90579 0 1.6405 0.73473 1.6405 1.6405z" enable-background="new" fill="url(#d-3-5)"/>
                <path d="m19.209 204.2c0 0.90579-0.73474 1.6405-1.6405 1.6405-0.90968 0-1.6444-0.73473-1.6444-1.6405 0-0.90575 0.73474-1.6444 1.6444-1.6444 0.90579 0 1.6405 0.73863 1.6405 1.6444z" enable-background="new" fill="#191919"/>
                <path d="m37.041 204.2c0 0.90579-0.73474 1.6405-1.6405 1.6405-0.90575 0-1.6405-0.73473-1.6405-1.6405 0-0.90575 0.73474-1.6444 1.6405-1.6444 0.90576 0 1.6405 0.73863 1.6405 1.6444z" enable-background="new" fill="#191919"/>
            </g>
            <path d="m18.148 189.32-1.1624 1.1663" enable-background="new" fill="none" stroke="#000" stroke-linecap="round" stroke-linejoin="round" stroke-width=".55146"/>
            <path d="m18.148 190.49-1.1624-1.1663" enable-background="new" fill="none" stroke="#000" stroke-linecap="round" stroke-linejoin="round" stroke-width=".55146"/>
            <path d="m19.209 202.87c0 0.9058-0.73474 1.6444-1.6405 1.6444-0.90968 0-1.6444-0.73863-1.6444-1.6444 0-0.90575 0.73474-1.6405 1.6444-1.6405 0.90579 0 1.6405 0.73473 1.6405 1.6405z" enable-background="new" fill="url(#e-5-9)" stroke-width=".9952"/>
            <path d="m18.148 202.29-1.1624 1.1624" enable-background="new" fill="none" stroke="#000" stroke-linecap="round" stroke-linejoin="round" stroke-width=".55146"/>
            <path d="m18.148 203.45-1.1624-1.1624" enable-background="new" fill="none" stroke="#000" stroke-linecap="round" stroke-linejoin="round" stroke-width=".55146"/>
            <path d="m37.041 202.87c0 0.9058-0.73474 1.6444-1.6405 1.6444-0.90575 0-1.6405-0.73863-1.6405-1.6444 0-0.90575 0.73474-1.6405 1.6405-1.6405 0.90576 0 1.6405 0.73473 1.6405 1.6405z" enable-background="new" fill="url(#f-6-0)" stroke-width=".9952"/>
            <path d="m35.984 202.29-1.1624 1.1624" enable-background="new" fill="none" stroke="#000" stroke-linecap="round" stroke-linejoin="round" stroke-width=".55146"/>
            <path d="m35.984 203.45-1.1624-1.1624" enable-background="new" fill="none" stroke="#000" stroke-linecap="round" stroke-linejoin="round" stroke-width=".55146"/>
            <path d="m30.79 234.67h66.547c3.7133 0 6.7209 3.0076 6.7209 6.717v3.8232c0 3.7094-3.0076 6.717-6.7209 6.717h-66.547c-3.7094 0-6.717-3.0076-6.717-6.717v-3.8232c0-3.7094 3.0076-6.717 6.717-6.717z" enable-background="new" fill="#0a0a0a" stroke-width="1.0038"/>
            <path d="m30.79 234.67c-3.7212 0-6.717 2.9958-6.717 6.717v3.5566c0-3.7251 2.9958-6.7209 6.717-6.7209h66.551c3.7212 0 6.717 2.9958 6.717 6.7209v-3.5566c0-3.7212-2.9958-6.717-6.717-6.717z" enable-background="new" fill="#2e2e2e" stroke-width="1.0038"/>
            <g transform="matrix(1.0038 0 0 1.0038 -.329 176.1)" enable-background="new" fill="none" stroke="#c0c0c0" stroke-linecap="round" stroke-linejoin="round" stroke-width=".81579">
                <path d="m24.641 83.999h78.833" stroke-linecap="square" stroke-linejoin="bevel" stroke-width=".81571"/>
                <path d="m24.64 99.097h78.809" stroke-linecap="square" stroke-linejoin="bevel" stroke-width=".81563"/>
                <path d="m80.462 84.281v14.621"/>
                <path d="m47.752 84.281v14.621"/>
            </g>
            <g transform="matrix(1.0038 0 0 1.0038 -.329 176.86)" enable-background="new" fill="#ff3f13">
                <path d="m31.727 63.176-0.55469 0.55859 0.55469 0.55859h2.9414l0.55859-0.55859-0.55859-0.55859z"/>
                <path d="m31.656 64.398-0.55859-0.55469-0.55859 0.55469v2.9414l0.55859 0.55859 0.55859-0.55859z"/>
                <path d="m35.855 64.398-0.55859-0.55469-0.55859 0.55469v2.9414l0.55859 0.55859 0.55859-0.55859z"/>
                <path d="m31.727 72.828-0.55469-0.55469 0.55469-0.55859h2.9414l0.55859 0.55859-0.55859 0.55469z"/>
                <path d="m31.656 71.605-0.55859 0.55859-0.55859-0.55859v-2.9414l0.55859-0.55859 0.55859 0.55859z"/>
                <path d="m35.855 71.605-0.55859 0.55859-0.55859-0.55859v-2.9414l0.55859-0.55859 0.55859 0.55859z"/>
                <path d="m39.871 63.176-0.55469 0.55859 0.55469 0.55859h2.9414l0.55859-0.55859-0.55859-0.55859z"/>
                <path d="m39.801 64.398-0.55859-0.55469-0.55859 0.55469v2.9414l0.55859 0.55859 0.55859-0.55859z"/>
                <path d="m44 64.398-0.55859-0.55469-0.55859 0.55469v2.9414l0.55859 0.55859 0.55859-0.55859z"/>
                <path d="m39.871 72.828-0.55469-0.55469 0.55469-0.55859h2.9414l0.55859 0.55859-0.55859 0.55469z"/>
                <path d="m39.801 71.605-0.55859 0.55859-0.55859-0.55859v-2.9414l0.55859-0.55859 0.55859 0.55859z"/>
                <path d="m44 71.605-0.55859 0.55859-0.55859-0.55859v-2.9414l0.55859-0.55859 0.55859 0.55859z"/>
                <path d="m49.648 63.176-0.55859 0.55859 0.55859 0.55859h2.9414l0.55859-0.55859-0.55859-0.55859z"/>
                <path d="m49.648 67.441-0.55859 0.55859 0.55859 0.55859h2.9414l0.55859-0.55859-0.55859-0.55859z"/>
                <path d="m49.574 64.398-0.55469-0.55469-0.5625 0.55469v2.9414l0.5625 0.55859 0.55469-0.55859z"/>
                <path d="m49.648 72.828-0.55859-0.55469 0.55859-0.55859h2.9414l0.55859 0.55859-0.55859 0.55469z"/>
                <path d="m53.773 71.605-0.55469 0.55859-0.5625-0.55859v-2.9414l0.5625-0.55859 0.55469 0.55859z"/>
                <path d="m57.793 63.176-0.55859 0.55859 0.55859 0.55859h2.9414l0.55859-0.55859-0.55859-0.55859z"/>
                <path d="m57.793 67.441-0.55859 0.55859 0.55859 0.55859h2.9414l0.55859-0.55859-0.55859-0.55859z"/>
                <path d="m57.719 64.398-0.55469-0.55469-0.55859 0.55469v2.9414l0.55859 0.55859 0.55469-0.55859z"/>
                <path d="m61.918 64.398-0.55469-0.55469-0.5625 0.55469v2.9414l0.5625 0.55859 0.55469-0.55859z"/>
                <path d="m57.793 72.828-0.55859-0.55469 0.55859-0.55859h2.9414l0.55859 0.55859-0.55859 0.55469z"/>
                <path d="m57.719 71.605-0.55469 0.55859-0.55859-0.55859v-2.9414l0.55859-0.55859 0.55469 0.55859z"/>
                <path d="m61.918 71.605-0.55469 0.55859-0.5625-0.55859v-2.9414l0.5625-0.55859 0.55469 0.55859z"/>
                <path d="m45.605 71.707h1.1094v1.1211h-1.1094z"/>
                <path d="m67.566 63.176-0.55859 0.55859 0.55859 0.55859h2.9414l0.55859-0.55859-0.55859-0.55859z"/>
                <path d="m67.566 67.441-0.55859 0.55859 0.55859 0.55859h2.9414l0.55859-0.55859-0.55859-0.55859z"/>
                <path d="m67.492 64.398-0.55469-0.55469-0.55859 0.55469v2.9414l0.55859 0.55859 0.55469-0.55859z"/>
                <path d="m67.566 72.828-0.55859-0.55469 0.55859-0.55859h2.9414l0.55859 0.55859-0.55859 0.55469z"/>
                <path d="m71.691 71.605-0.55469 0.55859-0.55859-0.55859v-2.9414l0.55859-0.55859 0.55469 0.55859z"/>
                <path d="m75.711 63.176-0.55859 0.55859 0.55859 0.55859h2.9414l0.55859-0.55859-0.55859-0.55859z"/>
                <path d="m75.711 67.441-0.55859 0.55859 0.55859 0.55859h2.9414l0.55859-0.55859-0.55859-0.55859z"/>
                <path d="m75.637 64.398-0.55469-0.55469-0.55859 0.55469v2.9414l0.55859 0.55859 0.55469-0.55859z"/>
                <path d="m79.836 64.398-0.55469-0.55469-0.55859 0.55469v2.9414l0.55859 0.55859 0.55469-0.55859z"/>
                <path d="m75.711 72.828-0.55859-0.55469 0.55859-0.55859h2.9414l0.55859 0.55859-0.55859 0.55469z"/>
                <path d="m79.836 71.605-0.55469 0.55859-0.55859-0.55859v-2.9414l0.55859-0.55859 0.55469 0.55859z"/>
                <path d="m63.527 71.707h1.1055v1.1211h-1.1055z"/>
                <path d="m85.484 63.176-0.55469 0.55859 0.55469 0.55859h2.9414l0.55859-0.55859-0.55859-0.55859z"/>
                <path d="m85.414 64.398-0.55859-0.55469-0.55859 0.55469v2.9414l0.55859 0.55859 0.55859-0.55859z"/>
                <path d="m89.609 64.398-0.55469-0.55469-0.55859 0.55469v2.9414l0.55859 0.55859 0.55469-0.55859z"/>
                <path d="m85.484 72.828-0.55469-0.55469 0.55469-0.55859h2.9414l0.55859 0.55859-0.55859 0.55469z"/>
                <path d="m85.414 71.605-0.55859 0.55859-0.55859-0.55859v-2.9414l0.55859-0.55859 0.55859 0.55859z"/>
                <path d="m89.609 71.605-0.55469 0.55859-0.55859-0.55859v-2.9414l0.55859-0.55859 0.55469 0.55859z"/>
                <path d="m93.629 63.176-0.55469 0.55859 0.55469 0.55859h2.9414l0.55859-0.55859-0.55859-0.55859z"/>
                <path d="m93.629 67.441-0.55469 0.55859 0.55469 0.55859h2.9414l0.55859-0.55859-0.55859-0.55859z"/>
                <path d="m93.559 64.398-0.55859-0.55469-0.55859 0.55469v2.9414l0.55859 0.55859 0.55859-0.55859z"/>
                <path d="m97.758 64.398-0.55859-0.55469-0.55859 0.55469v2.9414l0.55859 0.55859 0.55859-0.55859z"/>
                <path d="m93.629 72.828-0.55469-0.55469 0.55469-0.55859h2.9414l0.55859 0.55859-0.55859 0.55469z"/>
                <path d="m97.758 71.605-0.55859 0.55859-0.55859-0.55859v-2.9414l0.55859-0.55859 0.55859 0.55859z"/>
                <path d="m81.445 71.707h1.1055v1.1211h-1.1055z"/>
            </g>
            <g transform="matrix(1.0033 0 0 1.0033 -.38184 175.62)" enable-background="new" fill="none" stroke="#fff" stroke-width=".65971">
                <path d="m42.977 50.52h5.4023"/>
                <path d="m24.309 50.52h5.4023"/>
                <path d="m61.512 50.52h5.4023"/>
                <path d="m80.051 50.52h5.3984"/>
                <path d="m98.586 50.52h5.4023"/>
            </g>
            <g fill="#fff">
                <path d="m24.014 219.98h0.44373v-3.4072h0.68144c0.55466 0 0.91915 0.3645 0.91915 0.9033 0 0.50711-0.30111 0.79237-0.87161 0.79237h-0.88747v0.39618h0.80824c0.85575 0 1.4104-0.50712 1.4104-1.2678 0-0.72896-0.52295-1.2044-1.3312-1.2044h-1.1727zm3.1774 0h0.4279v-2.0284l-0.0793-0.60221h-0.34865zm0.3328-1.7115c0.15848-0.33279 0.47543-0.53883 0.82407-0.53883 0.11093 0 0.20602 0.0158 0.30109 0.0476l0.11095-0.39619c-0.12678-0.0476-0.23772-0.0634-0.34865-0.0634-0.3645 0-0.69727 0.19018-0.88746 0.50711zm2.7852 1.7591c0.77652 0 1.2994-0.55467 1.2994-1.3946 0-0.82407-0.49126-1.347-1.2361-1.347-0.77652 0-1.2994 0.55466-1.2994 1.4104 0 0.80823 0.47542 1.3312 1.2362 1.3312zm0.0476-0.38036c-0.50711 0-0.83991-0.41201-0.83991-1.0142 0-0.58634 0.30112-0.9667 0.79239-0.9667 0.50711 0 0.85575 0.42788 0.85575 1.0301 0 0.57051-0.31694 0.95083-0.80823 0.95083zm2.9872 0.38036c0.44374 0 0.79237-0.20602 0.9984-0.57051l-0.15848-0.20601c-0.15847 0.25356-0.39617 0.39616-0.71313 0.39616-0.52295 0-0.85575-0.41201-0.85575-1.0142 0-0.57052 0.3011-0.9667 0.80823-0.9667 0.33278 0 0.60219 0.15847 0.74482 0.42788l0.20601-0.25354c-0.19017-0.34865-0.52297-0.55467-0.96669-0.55467-0.74484 0-1.2362 0.55467-1.2362 1.3946 0 0.80822 0.47543 1.347 1.1727 1.347zm0.9033-0.0476h0.3011v-4.0411h-0.44372v3.74zm1.4501 0.0476c0.206 0 0.34862-0.14263 0.34862-0.34866 0-0.19015-0.14261-0.34864-0.34862-0.34864-0.20603 0-0.34865 0.15849-0.34865 0.34864 0 0.20602 0.14262 0.34866 0.34865 0.34866z" enable-background="new" stroke-width="1.0142"/>
                <g stroke-width="1.0033">
                    <path d="m31.822 227.97h0.39189v-1.5676h1.8184v1.5676h0.40757v-3.386h-0.40757v1.4578h-1.8184v-1.4578h-0.39189zm3.5114 0h0.39188v-3.0255h0.67409c0.48596 0 0.76812 0.23515 0.76812 0.65839 0 0.42326-0.25082 0.6584-0.7211 0.6584h-0.86219v0.34487h0.81516c0.70542 0 1.1757-0.45459 1.1757-1.0816 0-0.58001-0.43893-0.94055-1.1287-0.94055h-1.113zm1.9595 0h0.48595l-0.94056-1.599h-0.47028zm1.889 0.0471c0.75246 0 1.2384-0.37624 1.2384-0.97192 0-1.207-1.8968-0.7211-1.8968-1.599 0-0.36054 0.29785-0.54867 0.81516-0.54867 0.28217 0 0.5957 0.0471 0.84651 0.15677l0.10973-0.31353c-0.28217-0.12541-0.61137-0.20378-0.92488-0.20378-0.76813 0-1.2541 0.37622-1.2541 0.97192 0 1.16 1.8968 0.72109 1.8968 1.5833 0 0.34488-0.29785 0.56434-0.81516 0.56434-0.29785 0-0.68974-0.0785-1.0189-0.21946l-0.10974 0.31352c0.37623 0.17244 0.75245 0.26648 1.113 0.26648z" enable-background="new"/>
                    <path d="m50.418 227.97h0.37624v-2.8217h-0.0784l1.1757 2.2887h0.31352l1.1757-2.2887h-0.0627v2.8217h0.39189v-3.386h-0.40758l-1.3638 2.6649h0.25083l-1.3638-2.6649h-0.4076zm4.1816 0h0.39191v-3.386h-0.39191zm1.3012 0h0.37622v-2.9471h-0.0784l2.0065 2.9471h0.4546v-3.386h-0.39189v2.9628h0.0784l-1.9909-2.9628h-0.4546z" enable-background="new"/>
                    <path d="m69.845 228.02c0.75246 0 1.2384-0.37622 1.2384-0.97192 0-1.207-1.8968-0.7211-1.8968-1.599 0-0.36054 0.29784-0.54866 0.81515-0.54866 0.28217 0 0.59569 0.0471 0.84651 0.15677l0.10974-0.31352c-0.28218-0.12542-0.61137-0.2038-0.9249-0.2038-0.76813 0-1.2541 0.37623-1.2541 0.97192 0 1.16 1.8968 0.72111 1.8968 1.5833 0 0.34487-0.29784 0.56434-0.81515 0.56434-0.29785 0-0.68976-0.0785-1.0189-0.21947l-0.10974 0.31353c0.37622 0.17243 0.75246 0.26649 1.113 0.26649zm1.8616-0.047h2.1163v-0.34487h-1.7244v-1.2228h1.599v-0.36056h-1.599v-1.0974h1.7244v-0.36056h-2.1163zm4.3188 0.047c0.32918 0 0.67406-0.0785 0.98758-0.21948l-0.094-0.29784c-0.23514 0.10974-0.53299 0.15677-0.79947 0.15677-0.81515 0-1.3482-0.56435-1.3482-1.4266 0-0.83082 0.50163-1.3324 1.3168-1.3324 0.26649 0 0.58002 0.0627 0.83083 0.15677l0.12542-0.29785c-0.25082-0.14108-0.61137-0.21948-0.94058-0.21948-1.0503 0-1.7401 0.72111-1.7401 1.787 0 1.0189 0.65839 1.693 1.6616 1.693z" enable-background="new"/>
                    <path d="m87.613 227.97h0.39189v-1.5676h1.5676v-0.36055h-1.5676v-1.0974h1.7087v-0.36056h-2.1006zm2.7394 0h0.39189v-3.0255h0.67408c0.48596 0 0.76813 0.23515 0.76813 0.65839 0 0.42326-0.25082 0.6584-0.7211 0.6584h-0.86219v0.34487h0.81516c0.70542 0 1.1757-0.45459 1.1757-1.0816 0-0.58001-0.43893-0.94055-1.1287-0.94055h-1.113zm1.9595 0h0.48595l-0.94056-1.599h-0.47028zm1.8929 0.0471c0.75245 0 1.2384-0.37624 1.2384-0.97192 0-1.207-1.8968-0.7211-1.8968-1.599 0-0.36054 0.29784-0.54867 0.81516-0.54867 0.28216 0 0.59569 0.0471 0.8465 0.15677l0.10975-0.31353c-0.28217-0.12541-0.61138-0.20378-0.9249-0.20378-0.76812 0-1.2541 0.37622-1.2541 0.97192 0 1.16 1.8968 0.72109 1.8968 1.5833 0 0.34488-0.29785 0.56434-0.81515 0.56434-0.29785 0-0.68975-0.0785-1.0189-0.21946l-0.10974 0.31352c0.37622 0.17244 0.75244 0.26648 1.113 0.26648z" enable-background="new"/>
                </g>
            </g>
            <path d="m12.232 207.94h103.71" enable-background="new" fill="none" stroke="url(#linearGradient107)"/>
            <path d="m163 174c-1.1094 0-2 0.89062-2 2v8c0 1.1094 0.89062 2 2 2h10c1.1094 0 2-0.89063 2-2v-8s-0.0508-1.8438-2-1.8438l1 2-1 1.8438h-2l1-1.8438-1-2h-2l1 2-1 1.8438h-2l1-1.8438-1-2h-2l1 2-0.88672 1.6367-1.6133-2.793zm4.1875 6 2.5 1.7461-2.5 1.7539z" fill="#241f31"/>
            <g fill="none">
                <g stroke="#000" stroke-dasharray="0.99, 0.99" stroke-width=".99">
                    <circle cx="64" cy="236" r="59.504" enable-background="new" opacity=".1" style="paint-order:normal"/>
                    <rect x="20.495" y="180.49" width="87.01" height="111.01" rx="8.701" ry="7.9293" enable-background="new" opacity=".1" style="paint-order:normal"/>
                    <rect x="12.495" y="184.5" width="103.01" height="103.01" rx="7.9238" ry="7.9238" enable-background="new" opacity=".1" style="paint-order:normal"/>
                    <rect x="8.495" y="200.49" width="111.01" height="87.01" rx="7.9293" ry="8.701" enable-background="new" opacity=".1" style="paint-order:normal"/>
                </g>
                <path d="m2.6203e-5 289h128" enable-background="new" stroke="#62a0ea" stroke-width="2"/>
            </g>
        </g>
    </g>
</svg>
