<svg width="128px" height="128px" version="1.1" viewBox="0 0 128 128" xmlns="http://www.w3.org/2000/svg" xmlns:xlink="http://www.w3.org/1999/xlink">
    <linearGradient id="a" x1="88.596" x2="536.6" y1="-449.39" y2="-449.39" gradientTransform="matrix(.23214 0 0 .32895 -8.5669 263.83)" gradientUnits="userSpaceOnUse">
        <stop stop-color="#3d3846" offset="0"/>
        <stop stop-color="#616161" offset=".050256"/>
        <stop stop-color="#3d3846" offset=".10243"/>
        <stop stop-color="#3d3846" offset=".89565"/>
        <stop stop-color="#616161" offset=".94697"/>
        <stop stop-color="#3d3846" offset="1"/>
    </linearGradient>
    <linearGradient id="b" x1="64.326" x2="64.326" y1="36.898" y2="110.08" gradientUnits="userSpaceOnUse">
        <stop stop-color="#484848" offset="0"/>
        <stop stop-color="#3d3846" offset="1"/>
    </linearGradient>
    <linearGradient id="c" gradientUnits="userSpaceOnUse">
        <stop stop-color="#f0f0f0" offset=".40072"/>
        <stop stop-color="#888" offset="1"/>
    </linearGradient>
    <radialGradient id="d" cx="17.568" cy="17.903" r="1.642" xlink:href="#c"/>
    <radialGradient id="e" cx="17.568" cy="30.872" r="1.642" xlink:href="#c"/>
    <radialGradient id="f" cx="35.401" cy="30.872" r="1.642" xlink:href="#c"/>
    <linearGradient id="g" x1="12.232" x2="115.94" y1="207.94" y2="207.94" gradientUnits="userSpaceOnUse">
        <stop stop-color="#616161" offset="0"/>
        <stop stop-color="#484848" offset="1"/>
    </linearGradient>
    <path d="m20 16h88c4.418 0 8 3.582 8 8v84c0 4.418-3.582 8-8 8h-88c-4.418 0-8-3.582-8-8v-84c0-4.418 3.582-8 8-8z" fill="url(#a)"/>
    <path d="m20 12 10.5-0.046875 0.75 1.5156 76.75-0.03125c5.1211-0.003906 8 2.8164 8 6.5625v84c0 4.4336-3.5664 8-8 8h-88c-4.4336 0-8-3.5664-8-8v-84c0-4.4336 3.5703-8.0742 8-8z" fill="url(#b)"/>
    <path d="m31.324 13.461h78.121s6.5391 0 6.5391 6.5352v4.2656h-78.477z" fill="#191919"/>
    <path d="m37.387 24.086 78.598 0.17578 0.035156 11.133-72.227 0.03125z" fill="#191919"/>
    <g fill="#c0c0c0">
        <path d="m41.867 35.418 6.2344-10.801h9.7656l-6.2344 10.801z"/>
        <path d="m41.867 13.461 6.2344 10.801h9.7656l-6.2344-10.801z"/>
        <path d="m61.211 13.461 6.2344 10.801h9.7695l-6.2383-10.801z"/>
        <path d="m80.562 13.461 6.2344 10.801h9.7656l-6.2344-10.801z"/>
        <path d="m99.91 13.461 6.2383 10.801h9.7656l-6.2344-10.801z"/>
        <path d="m61.211 35.418 6.2344-10.801h9.7695l-6.2383 10.801z"/>
        <path d="m80.562 35.418 6.2344-10.801h9.7656l-6.2344 10.801z"/>
        <path d="m99.91 35.418 6.2383-10.801h9.7656l-6.2344 10.801z"/>
    </g>
    <path d="m20.039 12.016s-8.0742-0.027344-8.0742 8.3477v15.059l31.938 0.03125-13.445-23.438z" fill="#333331"/>
    <path d="m19.211 19.227c0 0.90625-0.73828 1.6406-1.6406 1.6406-0.91016 0-1.6445-0.73438-1.6445-1.6406s0.73438-1.6406 1.6445-1.6406c0.90234 0 1.6406 0.73437 1.6406 1.6406z" fill="#191919"/>
    <path d="m19.211 17.902c0 0.90625-0.73828 1.6406-1.6406 1.6406-0.91016 0-1.6445-0.73438-1.6445-1.6406s0.73438-1.6406 1.6445-1.6406c0.90234 0 1.6406 0.73438 1.6406 1.6406z" fill="url(#d)"/>
    <path d="m19.211 32.195c0 0.90625-0.73828 1.6406-1.6406 1.6406-0.91016 0-1.6445-0.73438-1.6445-1.6406 0-0.90234 0.73438-1.6445 1.6445-1.6445 0.90234 0 1.6406 0.74219 1.6406 1.6445z" fill="#191919"/>
    <path d="m37.043 32.195c0 0.90625-0.73828 1.6406-1.6406 1.6406-0.90625 0-1.6406-0.73438-1.6406-1.6406 0-0.90234 0.73438-1.6445 1.6406-1.6445 0.90234 0 1.6406 0.74219 1.6406 1.6445z" fill="#191919"/>
    <path d="m18.148 17.32-1.1641 1.1641" fill="none" stroke="#000" stroke-linecap="round" stroke-linejoin="round" stroke-width=".55146"/>
    <path d="m18.148 18.484-1.1641-1.1641" fill="none" stroke="#000" stroke-linecap="round" stroke-linejoin="round" stroke-width=".55146"/>
    <path d="m19.211 30.871c0 0.90625-0.73828 1.6445-1.6406 1.6445-0.91016 0-1.6445-0.73828-1.6445-1.6445s0.73438-1.6406 1.6445-1.6406c0.90234 0 1.6406 0.73438 1.6406 1.6406z" fill="url(#e)"/>
    <path d="m18.148 30.293-1.1641 1.1602" fill="none" stroke="#000" stroke-linecap="round" stroke-linejoin="round" stroke-width=".55146"/>
    <path d="m18.148 31.453-1.1641-1.1602" fill="none" stroke="#000" stroke-linecap="round" stroke-linejoin="round" stroke-width=".55146"/>
    <path d="m37.043 30.871c0 0.90625-0.73828 1.6445-1.6406 1.6445-0.90625 0-1.6406-0.73828-1.6406-1.6445s0.73438-1.6406 1.6406-1.6406c0.90234 0 1.6406 0.73438 1.6406 1.6406z" fill="url(#f)"/>
    <path d="m35.984 30.293-1.1641 1.1602" fill="none" stroke="#000" stroke-linecap="round" stroke-linejoin="round" stroke-width=".55146"/>
    <path d="m35.984 31.453-1.1641-1.1602" fill="none" stroke="#000" stroke-linecap="round" stroke-linejoin="round" stroke-width=".55146"/>
    <path d="m30.789 62.668h66.547c3.7148 0 6.7227 3.0078 6.7227 6.7188v3.8242c0 3.707-3.0078 6.7148-6.7227 6.7148h-66.547c-3.707 0-6.7148-3.0078-6.7148-6.7148v-3.8242c0-3.7109 3.0078-6.7188 6.7148-6.7188z" fill="#0a0a0a"/>
    <path d="m30.789 62.668c-3.7188 0-6.7148 2.9961-6.7148 6.7188v3.5547c0-3.7227 2.9961-6.7188 6.7148-6.7188h66.551c3.7227 0 6.7188 2.9961 6.7188 6.7188v-3.5547c0-3.7227-2.9961-6.7188-6.7188-6.7188z" fill="#2e2e2e"/>
    <g fill="none" stroke="#c0c0c0">
        <path d="m24.406 88.418h79.133" stroke-linecap="square" stroke-linejoin="bevel" stroke-width=".81883"/>
        <path d="m24.406 103.57h79.109" stroke-linecap="square" stroke-linejoin="bevel" stroke-width=".81875"/>
        <path d="m80.441 88.699v14.676" stroke-linecap="round" stroke-linejoin="round" stroke-width=".81891"/>
        <path d="m47.605 88.699v14.676" stroke-linecap="round" stroke-linejoin="round" stroke-width=".81891"/>
    </g>
    <g fill="#ff3f13">
        <path d="m31.52 68.277-0.55859 0.55859 0.55859 0.5625h2.9531l0.55859-0.5625-0.55859-0.55859z"/>
        <path d="m31.449 69.504-0.5625-0.55859-0.55859 0.55859v2.9531l0.55859 0.55859 0.5625-0.55859z"/>
        <path d="m35.664 69.504-0.5625-0.55859-0.55859 0.55859v2.9531l0.55859 0.55859 0.5625-0.55859z"/>
        <path d="m31.52 77.965-0.55859-0.55469 0.55859-0.5625h2.9531l0.55859 0.5625-0.55859 0.55469z"/>
        <path d="m31.449 76.738-0.5625 0.55859-0.55859-0.55859v-2.9531l0.55859-0.5625 0.5625 0.5625z"/>
        <path d="m35.664 76.738-0.5625 0.55859-0.55859-0.55859v-2.9531l0.55859-0.5625 0.5625 0.5625z"/>
        <path d="m39.695 68.277-0.55859 0.55859 0.55859 0.5625h2.9531l0.55859-0.5625-0.55859-0.55859z"/>
        <path d="m39.625 69.504-0.5625-0.55859-0.55859 0.55859v2.9531l0.55859 0.55859 0.5625-0.55859z"/>
        <path d="m43.84 69.504-0.5625-0.55859-0.55859 0.55859v2.9531l0.55859 0.55859 0.5625-0.55859z"/>
        <path d="m39.695 77.965-0.55859-0.55469 0.55859-0.5625h2.9531l0.55859 0.5625-0.55859 0.55469z"/>
        <path d="m39.625 76.738-0.5625 0.55859-0.55859-0.55859v-2.9531l0.55859-0.5625 0.5625 0.5625z"/>
        <path d="m43.84 76.738-0.5625 0.55859-0.55859-0.55859v-2.9531l0.55859-0.5625 0.5625 0.5625z"/>
        <path d="m49.508 68.277-0.55859 0.55859 0.55859 0.5625h2.9531l0.5625-0.5625-0.5625-0.55859z"/>
        <path d="m49.508 72.559-0.55859 0.55859 0.55859 0.5625h2.9531l0.5625-0.5625-0.5625-0.55859z"/>
        <path d="m49.434 69.504-0.55469-0.55859-0.56641 0.55859v2.9531l0.56641 0.55859 0.55469-0.55859z"/>
        <path d="m49.508 77.965-0.55859-0.55469 0.55859-0.5625h2.9531l0.5625 0.5625-0.5625 0.55469z"/>
        <path d="m53.648 76.738-0.55469 0.55859-0.56641-0.55859v-2.9531l0.56641-0.5625 0.55469 0.5625z"/>
        <path d="m57.684 68.277-0.55859 0.55859 0.55859 0.5625h2.9531l0.5625-0.5625-0.5625-0.55859z"/>
        <path d="m57.684 72.559-0.55859 0.55859 0.55859 0.5625h2.9531l0.5625-0.5625-0.5625-0.55859z"/>
        <path d="m57.609 69.504-0.55469-0.55859-0.5625 0.55859v2.9531l0.5625 0.55859 0.55469-0.55859z"/>
        <path d="m61.824 69.504-0.55469-0.55859-0.56641 0.55859v2.9531l0.56641 0.55859 0.55469-0.55859z"/>
        <path d="m57.684 77.965-0.55859-0.55469 0.55859-0.5625h2.9531l0.5625 0.5625-0.5625 0.55469z"/>
        <path d="m57.609 76.738-0.55469 0.55859-0.5625-0.55859v-2.9531l0.5625-0.5625 0.55469 0.5625z"/>
        <path d="m61.824 76.738-0.55469 0.55859-0.56641-0.55859v-2.9531l0.56641-0.5625 0.55469 0.5625z"/>
        <path d="m45.449 76.84h1.1133v1.125h-1.1133z"/>
        <path d="m67.496 68.277-0.5625 0.55859 0.5625 0.5625h2.9531l0.55859-0.5625-0.55859-0.55859z"/>
        <path d="m67.496 72.559-0.5625 0.55859 0.5625 0.5625h2.9531l0.55859-0.5625-0.55859-0.55859z"/>
        <path d="m67.422 69.504-0.55859-0.55859-0.55859 0.55859v2.9531l0.55859 0.55859 0.55859-0.55859z"/>
        <path d="m67.496 77.965-0.5625-0.55469 0.5625-0.5625h2.9531l0.55859 0.5625-0.55859 0.55469z"/>
        <path d="m71.637 76.738-0.55859 0.55859-0.55859-0.55859v-2.9531l0.55859-0.5625 0.55859 0.5625z"/>
        <path d="m75.672 68.277-0.5625 0.55859 0.5625 0.5625h2.9531l0.55859-0.5625-0.55859-0.55859z"/>
        <path d="m75.672 72.559-0.5625 0.55859 0.5625 0.5625h2.9531l0.55859-0.5625-0.55859-0.55859z"/>
        <path d="m75.598 69.504-0.55859-0.55859-0.55859 0.55859v2.9531l0.55859 0.55859 0.55859-0.55859z"/>
        <path d="m79.812 69.504-0.55859-0.55859-0.55859 0.55859v2.9531l0.55859 0.55859 0.55859-0.55859z"/>
        <path d="m75.672 77.965-0.5625-0.55469 0.5625-0.5625h2.9531l0.55859 0.5625-0.55859 0.55469z"/>
        <path d="m79.812 76.738-0.55859 0.55859-0.55859-0.55859v-2.9531l0.55859-0.5625 0.55859 0.5625z"/>
        <path d="m63.441 76.84h1.1094v1.125h-1.1094z"/>
        <path d="m85.48 68.277-0.55469 0.55859 0.55469 0.5625h2.9531l0.5625-0.5625-0.5625-0.55859z"/>
        <path d="m85.41 69.504-0.55859-0.55859-0.5625 0.55859v2.9531l0.5625 0.55859 0.55859-0.55859z"/>
        <path d="m89.621 69.504-0.55469-0.55859-0.5625 0.55859v2.9531l0.5625 0.55859 0.55469-0.55859z"/>
        <path d="m85.48 77.965-0.55469-0.55469 0.55469-0.5625h2.9531l0.5625 0.5625-0.5625 0.55469z"/>
        <path d="m85.41 76.738-0.55859 0.55859-0.5625-0.55859v-2.9531l0.5625-0.5625 0.55859 0.5625z"/>
        <path d="m89.621 76.738-0.55469 0.55859-0.5625-0.55859v-2.9531l0.5625-0.5625 0.55469 0.5625z"/>
        <path d="m93.656 68.277-0.55469 0.55859 0.55469 0.5625h2.9531l0.5625-0.5625-0.5625-0.55859z"/>
        <path d="m93.656 72.559-0.55469 0.55859 0.55469 0.5625h2.9531l0.5625-0.5625-0.5625-0.55859z"/>
        <path d="m93.586 69.504-0.55859-0.55859-0.5625 0.55859v2.9531l0.5625 0.55859 0.55859-0.55859z"/>
        <path d="m97.805 69.504-0.5625-0.55859-0.5625 0.55859v2.9531l0.5625 0.55859 0.5625-0.55859z"/>
        <path d="m93.656 77.965-0.55469-0.55469 0.55469-0.5625h2.9531l0.5625 0.5625-0.5625 0.55469z"/>
        <path d="m97.805 76.738-0.5625 0.55859-0.5625-0.55859v-2.9531l0.5625-0.5625 0.5625 0.5625z"/>
        <path d="m81.426 76.84h1.1133v1.125h-1.1133z"/>
    </g>
    <g fill="none" stroke="#fff" stroke-width=".66187">
        <path d="m42.734 54.301h5.4219"/>
        <path d="m24.008 54.301h5.418"/>
        <path d="m61.332 54.301h5.418"/>
        <path d="m79.93 54.301h5.418"/>
        <path d="m98.527 54.301h5.418"/>
    </g>
    <g fill="#fff">
        <path d="m24.016 47.977h0.44141v-3.4062h0.68359c0.55469 0 0.91797 0.36328 0.91797 0.90234 0 0.50781-0.30078 0.79297-0.87109 0.79297h-0.88672v0.39844h0.80469c0.85938 0 1.4141-0.50781 1.4141-1.2695 0-0.73047-0.52344-1.2031-1.332-1.2031h-1.1719zm3.1758 0h0.42578v-2.0273l-0.078126-0.60156h-0.34766zm0.33203-1.7109c0.16016-0.33203 0.47656-0.53906 0.82422-0.53906 0.10938 0 0.20703 0.015626 0.30078 0.046876l0.11328-0.39453c-0.12891-0.046875-0.23828-0.0625-0.35156-0.0625-0.36328 0-0.69531 0.1875-0.88672 0.50781zm2.7852 1.7617c0.77734 0 1.3008-0.55469 1.3008-1.3945 0-0.82422-0.49219-1.3477-1.2383-1.3477-0.77344 0-1.2969 0.55469-1.2969 1.4102 0 0.80859 0.47266 1.332 1.2344 1.332zm0.046875-0.38281c-0.50391 0-0.83984-0.41016-0.83984-1.0117 0-0.58984 0.30078-0.96875 0.79297-0.96875 0.50781 0 0.85547 0.42969 0.85547 1.0312 0 0.57031-0.31641 0.94922-0.80859 0.94922zm2.9883 0.38281c0.44531 0 0.79297-0.20703 1-0.57422l-0.16016-0.20312c-0.15625 0.25391-0.39453 0.39453-0.71094 0.39453-0.52344 0-0.85938-0.41016-0.85938-1.0117 0-0.57422 0.30469-0.96875 0.80859-0.96875 0.33594 0 0.60547 0.16016 0.74609 0.42969l0.20703-0.25391c-0.19141-0.35156-0.52344-0.55469-0.96875-0.55469-0.74219 0-1.2344 0.55469-1.2344 1.3945 0 0.80859 0.47656 1.3477 1.1719 1.3477zm0.90234-0.050782h0.30078v-4.0391h-0.44141v3.7383zm1.4531 0.050782c0.20312 0 0.34766-0.14453 0.34766-0.35156 0-0.1875-0.14453-0.34766-0.34766-0.34766-0.20703 0-0.35156 0.16016-0.35156 0.34766 0 0.20703 0.14453 0.35156 0.35156 0.35156z"/>
        <path d="m31.82 55.969h0.39453v-1.5664h1.8164v1.5664h0.41016v-3.3867h-0.41016v1.457h-1.8164v-1.457h-0.39453zm3.5117 0h0.39453v-3.0273h0.67188c0.48828 0 0.76953 0.23828 0.76953 0.66016 0 0.42188-0.25 0.66016-0.72266 0.66016h-0.85937v0.34375h0.8125c0.70703 0 1.1758-0.45703 1.1758-1.082 0-0.58203-0.4375-0.94141-1.1289-0.94141h-1.1133zm1.9609 0h0.48438l-0.9375-1.5977h-0.47266zm1.8906 0.046875c0.75 0 1.2383-0.375 1.2383-0.97266 0-1.207-1.8984-0.71875-1.8984-1.5977 0-0.35937 0.29687-0.55078 0.81641-0.55078 0.28125 0 0.59375 0.046875 0.84375 0.16016l0.11328-0.31641c-0.28516-0.125-0.61328-0.20312-0.92578-0.20312-0.76953 0-1.2539 0.375-1.2539 0.97266 0 1.1602 1.8945 0.72266 1.8945 1.582 0 0.34766-0.29688 0.56641-0.8125 0.56641-0.30078 0-0.69141-0.078125-1.0195-0.21875l-0.10938 0.3125c0.375 0.17188 0.75 0.26562 1.1133 0.26562z"/>
        <path d="m50.418 55.969h0.375v-2.8203h-0.078125l1.1758 2.2891h0.3125l1.1758-2.2891h-0.0625v2.8203h0.39453v-3.3867h-0.41016l-1.3633 2.6641h0.25l-1.3633-2.6641h-0.40625zm4.1797 0h0.39453v-3.3867h-0.39453zm1.3047 0h0.375v-2.9492h-0.078125l2.0039 2.9492h0.45703v-3.3867h-0.39453v2.9648h0.082031l-1.9922-2.9648h-0.45312z"/>
        <path d="m69.844 56.016c0.75391 0 1.2383-0.375 1.2383-0.97266 0-1.207-1.8945-0.71875-1.8945-1.5977 0-0.35937 0.29688-0.55078 0.8125-0.55078 0.28516 0 0.59766 0.046875 0.84766 0.16016l0.10938-0.31641c-0.28125-0.125-0.60938-0.20312-0.92578-0.20312-0.76562 0-1.2539 0.375-1.2539 0.97266 0 1.1602 1.8984 0.72266 1.8984 1.582 0 0.34766-0.29688 0.56641-0.81641 0.56641-0.29688 0-0.6875-0.078125-1.0156-0.21875l-0.11328 0.3125c0.37891 0.17188 0.75391 0.26562 1.1133 0.26562zm1.8633-0.046875h2.1172v-0.34375h-1.7266v-1.2227h1.6016v-0.36328h-1.6016v-1.0977h1.7266v-0.35938h-2.1172zm4.3164 0.046875c0.33203 0 0.67578-0.078125 0.98828-0.21875l-0.09375-0.29688c-0.23438 0.10938-0.53125 0.15625-0.79688 0.15625-0.81641 0-1.3516-0.56641-1.3516-1.4258 0-0.83203 0.50391-1.3359 1.3203-1.3359 0.26562 0 0.57812 0.0625 0.82812 0.16016l0.125-0.30078c-0.25-0.14062-0.60938-0.21875-0.9375-0.21875-1.0508 0-1.7422 0.72266-1.7422 1.7891 0 1.0156 0.66016 1.6914 1.6602 1.6914z"/>
        <path d="m87.613 55.969h0.39062v-1.5664h1.5703v-0.36328h-1.5703v-1.0977h1.7109v-0.35938h-2.1016zm2.7383 0h0.39453v-3.0273h0.67188c0.48828 0 0.76953 0.23828 0.76953 0.66016 0 0.42188-0.25 0.66016-0.72266 0.66016h-0.86328v0.34375h0.81641c0.70703 0 1.1758-0.45703 1.1758-1.082 0-0.58203-0.4375-0.94141-1.1289-0.94141h-1.1133zm1.9609 0h0.48438l-0.94141-1.5977h-0.46875zm1.8906 0.046875c0.75391 0 1.2383-0.375 1.2383-0.97266 0-1.207-1.8945-0.71875-1.8945-1.5977 0-0.35937 0.29688-0.55078 0.81641-0.55078 0.28125 0 0.59375 0.046875 0.84375 0.16016l0.10938-0.31641c-0.28125-0.125-0.60938-0.20312-0.92188-0.20312-0.76953 0-1.2539 0.375-1.2539 0.97266 0 1.1602 1.8945 0.72266 1.8945 1.582 0 0.34766-0.29688 0.56641-0.81641 0.56641-0.29688 0-0.6875-0.078125-1.0156-0.21875l-0.11328 0.3125c0.37891 0.17188 0.75391 0.26562 1.1133 0.26562z"/>
    </g>
    <path transform="translate(0 -172)" d="m12.23 207.94h103.71" fill="none" stroke="url(#g)"/>
</svg>
