<svg width="128px" height="128px" version="1.1" viewBox="0 0 128 128" xmlns="http://www.w3.org/2000/svg">
    <linearGradient id="a" x1="88.596" x2="536.6" y1="-449.39" y2="-449.39" gradientTransform="matrix(.23214 0 0 .32895 -8.5669 263.83)" gradientUnits="userSpaceOnUse">
        <stop stop-color="#3d3846" offset="0"/>
        <stop stop-color="#616161" offset=".050256"/>
        <stop stop-color="#3d3846" offset=".10243"/>
        <stop stop-color="#3d3846" offset=".89565"/>
        <stop stop-color="#616161" offset=".94697"/>
        <stop stop-color="#3d3846" offset="1"/>
    </linearGradient>
    <linearGradient id="b" x1="64.33" x2="64.33" y1="36.9" y2="110.08" gradientUnits="userSpaceOnUse">
        <stop stop-color="#484848" offset="0"/>
        <stop stop-color="#3d3846" offset="1"/>
    </linearGradient>
    <linearGradient id="c" x1="20.232" x2="123.94" y1="51.938" y2="51.938" gradientUnits="userSpaceOnUse">
        <stop stop-color="#616161" offset="0"/>
        <stop stop-color="#484848" offset="1"/>
    </linearGradient>
    <path d="m20 16h88c4.418 0 8 3.582 8 8v84c0 4.418-3.582 8-8 8h-88c-4.418 0-8-3.582-8-8v-84c0-4.418 3.582-8 8-8z" fill="url(#a)"/>
    <path d="m20 12 10.5-0.046875 0.75 1.5156 76.75-0.03125c5.1211-0.003906 8 2.8164 8 6.5625v84c0 4.4336-3.5664 8-8 8h-88c-4.4336 0-8-3.5664-8-8v-84c0-4.4336 3.5703-8.0742 8-8z" fill="url(#b)"/>
    <path d="m31.324 13.461h78.121s6.5391 0 6.5391 6.5352v4.2656h-78.477z" fill="#191919"/>
    <path d="m37.387 24.078 78.598 0.17969 0.035156 11.133-72.227 0.03125z" fill="#191919"/>
    <g fill="#c0c0c0">
        <path d="m41.863 35.422 6.2344-10.801h9.7695l-6.2383 10.801z"/>
        <path d="m41.863 13.465 6.2344 10.801h9.7695l-6.2383-10.801z"/>
        <path d="m61.207 13.465 6.2383 10.801h9.7656l-6.2344-10.801z"/>
        <path d="m80.559 13.465 6.2344 10.801h9.7656l-6.2344-10.801z"/>
        <path d="m99.906 13.465 6.2344 10.801h9.7695l-6.2383-10.801z"/>
        <path d="m61.207 35.422 6.2383-10.801h9.7656l-6.2344 10.801z"/>
        <path d="m80.559 35.422 6.2344-10.801h9.7656l-6.2344 10.801z"/>
        <path d="m99.906 35.422 6.2344-10.801h9.7695l-6.2383 10.801z"/>
    </g>
    <path d="m20.035 12.02s-8.0703-0.027343-8.0703 8.3438v15.059l31.938 0.035156-13.445-23.438z" fill="#333331"/>
    <path d="m30.637 62.672h66.688c3.7188 0 6.7344 3.0039 6.7344 6.7148v3.8242c0 3.707-3.0156 6.7148-6.7344 6.7148h-66.688c-3.7148 0-6.7305-3.0078-6.7305-6.7148v-3.8242c0-3.7109 3.0156-6.7148 6.7305-6.7148z" fill="#0a0a0a"/>
    <path d="m30.637 62.672c-3.7266 0-6.7305 2.9922-6.7305 6.7148v3.5586c0-3.7266 3.0039-6.7227 6.7305-6.7227h66.691c3.7266 0 6.7305 2.9961 6.7305 6.7227v-3.5586c0-3.7227-3.0039-6.7148-6.7305-6.7148z" fill="#2e2e2e"/>
    <g fill="none" stroke="#c0c0c0">
        <path d="m24.406 88.5h79.258" stroke-linecap="square" stroke-linejoin="round"/>
        <path d="m24.406 103.66h79.273" stroke-linecap="square" stroke-linejoin="bevel"/>
        <path d="m80.531 88.703v14.676" stroke-linecap="round" stroke-linejoin="round"/>
        <path d="m47.785 88.703v14.676" stroke-linecap="round" stroke-linejoin="round"/>
    </g>
    <g fill="#ff3f13">
        <path d="m31.52 68.277-0.55859 0.55859 0.55859 0.5625h2.9531l0.55859-0.5625-0.55859-0.55859z"/>
        <path d="m31.449 69.504-0.5625-0.55859-0.5625 0.55859v2.9531l0.5625 0.55859 0.5625-0.55859z"/>
        <path d="m35.664 69.504-0.5625-0.55859-0.5625 0.55859v2.9531l0.5625 0.55859 0.5625-0.55859z"/>
        <path d="m31.52 77.965-0.55859-0.55859 0.55859-0.55859h2.9531l0.55859 0.55859-0.55859 0.55859z"/>
        <path d="m31.449 76.738-0.5625 0.55859-0.5625-0.55859v-2.9531l0.5625-0.5625 0.5625 0.5625z"/>
        <path d="m35.664 76.738-0.5625 0.55859-0.5625-0.55859v-2.9531l0.5625-0.5625 0.5625 0.5625z"/>
        <path d="m39.695 68.277-0.55859 0.55859 0.55859 0.5625h2.9492l0.5625-0.5625-0.5625-0.55859z"/>
        <path d="m39.625 69.504-0.5625-0.55859-0.5625 0.55859v2.9531l0.5625 0.55859 0.5625-0.55859z"/>
        <path d="m43.84 69.504-0.5625-0.55859-0.5625 0.55859v2.9531l0.5625 0.55859 0.5625-0.55859z"/>
        <path d="m39.695 77.965-0.55859-0.55859 0.55859-0.55859h2.9492l0.5625 0.55859-0.5625 0.55859z"/>
        <path d="m39.625 76.738-0.5625 0.55859-0.5625-0.55859v-2.9531l0.5625-0.5625 0.5625 0.5625z"/>
        <path d="m43.84 76.738-0.5625 0.55859-0.5625-0.55859v-2.9531l0.5625-0.5625 0.5625 0.5625z"/>
        <path d="m49.508 68.277-0.5625 0.55859 0.5625 0.5625h2.9531l0.55859-0.5625-0.55859-0.55859z"/>
        <path d="m49.508 72.559-0.5625 0.55859 0.5625 0.5625h2.9531l0.55859-0.5625-0.55859-0.55859z"/>
        <path d="m49.434 69.504-0.55859-0.55859-0.5625 0.55859v2.9531l0.5625 0.55859 0.55859-0.55859z"/>
        <path d="m49.508 77.965-0.5625-0.55859 0.5625-0.55859h2.9531l0.55859 0.55859-0.55859 0.55859z"/>
        <path d="m53.648 76.738-0.55859 0.55859-0.5625-0.55859v-2.9531l0.5625-0.5625 0.55859 0.5625z"/>
        <path d="m57.684 68.277-0.5625 0.55859 0.5625 0.5625h2.9531l0.55859-0.5625-0.55859-0.55859z"/>
        <path d="m57.684 72.559-0.5625 0.55859 0.5625 0.5625h2.9531l0.55859-0.5625-0.55859-0.55859z"/>
        <path d="m57.609 69.504-0.55859-0.55859-0.55859 0.55859v2.9531l0.55859 0.55859 0.55859-0.55859z"/>
        <path d="m61.824 69.504-0.55859-0.55859-0.5625 0.55859v2.9531l0.5625 0.55859 0.55859-0.55859z"/>
        <path d="m57.684 77.965-0.5625-0.55859 0.5625-0.55859h2.9531l0.55859 0.55859-0.55859 0.55859z"/>
        <path d="m57.609 76.738-0.55859 0.55859-0.55859-0.55859v-2.9531l0.55859-0.5625 0.55859 0.5625z"/>
        <path d="m61.824 76.738-0.55859 0.55859-0.5625-0.55859v-2.9531l0.5625-0.5625 0.55859 0.5625z"/>
        <path d="m45.449 76.84h1.1133v1.125h-1.1133z"/>
        <path d="m67.492 68.277-0.55859 0.55859 0.55859 0.5625h2.9531l0.5625-0.5625-0.5625-0.55859z"/>
        <path d="m67.492 72.559-0.55859 0.55859 0.55859 0.5625h2.9531l0.5625-0.5625-0.5625-0.55859z"/>
        <path d="m67.418 69.504-0.55469-0.55859-0.5625 0.55859v2.9531l0.5625 0.55859 0.55469-0.55859z"/>
        <path d="m67.492 77.965-0.55859-0.55859 0.55859-0.55859h2.9531l0.5625 0.55859-0.5625 0.55859z"/>
        <path d="m71.633 76.738-0.55469 0.55859-0.5625-0.55859v-2.9531l0.5625-0.5625 0.55469 0.5625z"/>
        <path d="m75.668 68.277-0.55859 0.55859 0.55859 0.5625h2.9531l0.5625-0.5625-0.5625-0.55859z"/>
        <path d="m75.668 72.559-0.55859 0.55859 0.55859 0.5625h2.9531l0.5625-0.5625-0.5625-0.55859z"/>
        <path d="m75.594 69.504-0.55469-0.55859-0.5625 0.55859v2.9531l0.5625 0.55859 0.55469-0.55859z"/>
        <path d="m79.809 69.504-0.55469-0.55859-0.5625 0.55859v2.9531l0.5625 0.55859 0.55469-0.55859z"/>
        <path d="m75.668 77.965-0.55859-0.55859 0.55859-0.55859h2.9531l0.5625 0.55859-0.5625 0.55859z"/>
        <path d="m79.809 76.738-0.55469 0.55859-0.5625-0.55859v-2.9531l0.5625-0.5625 0.55469 0.5625z"/>
        <path d="m63.438 76.84h1.1133v1.125h-1.1133z"/>
        <path d="m85.48 68.277-0.55859 0.55859 0.55859 0.5625h2.9531l0.55859-0.5625-0.55859-0.55859z"/>
        <path d="m85.41 69.504-0.5625-0.55859-0.55859 0.55859v2.9531l0.55859 0.55859 0.5625-0.55859z"/>
        <path d="m89.621 69.504-0.55859-0.55859-0.55859 0.55859v2.9531l0.55859 0.55859 0.55859-0.55859z"/>
        <path d="m85.48 77.965-0.55859-0.55859 0.55859-0.55859h2.9531l0.55859 0.55859-0.55859 0.55859z"/>
        <path d="m85.41 76.738-0.5625 0.55859-0.55859-0.55859v-2.9531l0.55859-0.5625 0.5625 0.5625z"/>
        <path d="m89.621 76.738-0.55859 0.55859-0.55859-0.55859v-2.9531l0.55859-0.5625 0.55859 0.5625z"/>
        <path d="m93.656 68.277-0.55859 0.55859 0.55859 0.5625h2.9531l0.55859-0.5625-0.55859-0.55859z"/>
        <path d="m93.656 72.559-0.55859 0.55859 0.55859 0.5625h2.9531l0.55859-0.5625-0.55859-0.55859z"/>
        <path d="m93.586 69.504-0.5625-0.55859-0.55859 0.55859v2.9531l0.55859 0.55859 0.5625-0.55859z"/>
        <path d="m97.801 69.504-0.5625-0.55859-0.55859 0.55859v2.9531l0.55859 0.55859 0.5625-0.55859z"/>
        <path d="m93.656 77.965-0.55859-0.55859 0.55859-0.55859h2.9531l0.55859 0.55859-0.55859 0.55859z"/>
        <path d="m97.801 76.738-0.5625 0.55859-0.55859-0.55859v-2.9531l0.55859-0.5625 0.5625 0.5625z"/>
        <path d="m81.426 76.84h1.1094v1.125h-1.1094z"/>
    </g>
    <path transform="translate(-8 -16)" d="m20.23 51.941h103.71" fill="none" stroke="url(#c)"/>
    <g fill="#c0c0c0">
        <path d="m19.73 30.23c0 1.1016-0.89453 2-2 2s-2-0.89844-2-2c0-1.1055 0.89453-2 2-2s2 0.89453 2 2z"/>
        <path d="m19.73 17.398c0 1.1016-0.89453 2-2 2s-2-0.89844-2-2c0-1.1055 0.89453-2 2-2s2 0.89453 2 2z"/>
        <path d="m37.258 30.23c0 1.1016-0.89453 2-1.9961 2-1.1094 0-2.0039-0.89844-2.0039-2 0-1.1055 0.89453-2 2.0039-2 1.1016 0 1.9961 0.89453 1.9961 2z"/>
    </g>
    <g fill="none" stroke-linecap="round" stroke-linejoin="round">
        <path d="m25.457 45.824h20.992" stroke="#c0c0c0" stroke-width="3.0042"/>
        <path d="m32.395 53.297h28" stroke="#c0c0c0" stroke-width="2.9991"/>
        <path d="m25.457 53.297h1.5781" stroke="#fff" stroke-width="3"/>
        <path d="m74.598 53.297h28.004" stroke="#c0c0c0" stroke-width="2.9991"/>
        <path d="m67.664 53.297h1.5781" stroke="#fff" stroke-width="3"/>
    </g>
</svg>
